<?xml version="1.0" standalone="no"?>
<!DOCTYPE svg PUBLIC "-//W3C//DTD SVG 20010904//EN"
 "http://www.w3.org/TR/2001/REC-SVG-20010904/DTD/svg10.dtd">
<svg version="1.0" xmlns="http://www.w3.org/2000/svg"
 width="700.000000pt" height="700.000000pt" viewBox="0 0 700.000000 700.000000"
 preserveAspectRatio="xMidYMid meet">
<metadata>
Created by potrace 1.14, written by Peter Selinger 2001-2017
</metadata>
<g transform="translate(0.000000,700.000000) scale(0.100000,-0.100000)"
fill="#000000" stroke="none">
<path d="M3225 6004 c-156 -21 -338 -62 -475 -106 -931 -301 -1579 -1020
-1740 -1928 -28 -156 -38 -493 -21 -662 52 -508 269 -1040 579 -1428 325 -405
769 -695 1255 -819 239 -62 465 -87 699 -78 499 19 982 175 1391 447 171 114
247 176 384 310 368 363 592 790 685 1307 20 112 23 160 23 388 0 296 -11 390
-75 640 -123 484 -361 908 -699 1246 -391 391 -852 616 -1401 685 -143 18
-469 17 -605 -2z m624 -458 c400 -75 722 -245 1007 -530 286 -287 489 -654
599 -1081 103 -401 94 -788 -26 -1150 -222 -668 -810 -1158 -1573 -1311 -176
-36 -463 -44 -640 -20 -800 112 -1418 681 -1661 1531 -66 233 -80 332 -80 600
0 245 6 304 46 470 164 667 661 1187 1351 1410 117 38 294 79 406 94 102 14
472 6 571 -13z"/>
<path d="M3363 4930 c-160 -17 -357 -76 -513 -155 -465 -234 -703 -627 -676
-1119 17 -323 142 -680 340 -971 71 -106 245 -284 333 -344 273 -182 574 -230
920 -146 421 102 757 355 913 688 68 144 110 330 110 485 0 47 -2 52 -22 52
-36 0 -492 -51 -497 -55 -2 -2 -5 -48 -6 -102 -3 -116 -16 -173 -61 -268 -76
-160 -226 -283 -428 -350 -409 -137 -789 141 -990 724 -77 220 -100 456 -62
616 70 293 334 495 646 495 178 0 310 -54 445 -182 45 -42 93 -93 106 -113 13
-19 29 -33 36 -31 21 8 403 298 403 306 0 16 -79 107 -156 180 -180 171 -382
265 -625 290 -110 11 -110 11 -216 0z"/>
</g>
</svg>
